<svg width="25" height="25" viewBox="0 0 25 25" fill="none" xmlns="http://www.w3.org/2000/svg">
<path d="M17.0833 4.06V2.5C17.0833 2.09 16.7433 1.75 16.3333 1.75C15.9233 1.75 15.5833 2.09 15.5833 2.5V4H9.08334V2.5C9.08334 2.09 8.74334 1.75 8.33334 1.75C7.92334 1.75 7.58334 2.09 7.58334 2.5V4.06C4.88334 4.31 3.57334 5.92 3.37334 8.31C3.35334 8.6 3.59334 8.84 3.87334 8.84H20.7933C21.0833 8.84 21.3233 8.59 21.2933 8.31C21.0933 5.92 19.7833 4.31 17.0833 4.06Z" fill="#00748C"/>
<path d="M20.3333 10.3401H4.33334C3.78334 10.3401 3.33334 10.7901 3.33334 11.3401V17.5001C3.33334 20.5001 4.83334 22.5001 8.33334 22.5001H16.3333C19.8333 22.5001 21.3333 20.5001 21.3333 17.5001V11.3401C21.3333 10.7901 20.8833 10.3401 20.3333 10.3401ZM9.54334 18.7101C9.49334 18.7501 9.44334 18.8001 9.39334 18.8301C9.33334 18.8701 9.27334 18.9001 9.21334 18.9201C9.15334 18.9501 9.09334 18.9701 9.03334 18.9801C8.96334 18.9901 8.90334 19.0001 8.83334 19.0001C8.70334 19.0001 8.57334 18.9701 8.45334 18.9201C8.32334 18.8701 8.22334 18.8001 8.12334 18.7101C7.94334 18.5201 7.83334 18.2601 7.83334 18.0001C7.83334 17.7401 7.94334 17.4801 8.12334 17.2901C8.22334 17.2001 8.32334 17.1301 8.45334 17.0801C8.63334 17.0001 8.83334 16.9801 9.03334 17.0201C9.09334 17.0301 9.15334 17.0501 9.21334 17.0801C9.27334 17.1001 9.33334 17.1301 9.39334 17.1701C9.44334 17.2101 9.49334 17.2501 9.54334 17.2901C9.72334 17.4801 9.83334 17.7401 9.83334 18.0001C9.83334 18.2601 9.72334 18.5201 9.54334 18.7101ZM9.54334 15.2101C9.35334 15.3901 9.09334 15.5001 8.83334 15.5001C8.57334 15.5001 8.31334 15.3901 8.12334 15.2101C7.94334 15.0201 7.83334 14.7601 7.83334 14.5001C7.83334 14.2401 7.94334 13.9801 8.12334 13.7901C8.40334 13.5101 8.84334 13.4201 9.21334 13.5801C9.34334 13.6301 9.45334 13.7001 9.54334 13.7901C9.72334 13.9801 9.83334 14.2401 9.83334 14.5001C9.83334 14.7601 9.72334 15.0201 9.54334 15.2101ZM13.0433 18.7101C12.8533 18.8901 12.5933 19.0001 12.3333 19.0001C12.0733 19.0001 11.8133 18.8901 11.6233 18.7101C11.4433 18.5201 11.3333 18.2601 11.3333 18.0001C11.3333 17.7401 11.4433 17.4801 11.6233 17.2901C11.9933 16.9201 12.6733 16.9201 13.0433 17.2901C13.2233 17.4801 13.3333 17.7401 13.3333 18.0001C13.3333 18.2601 13.2233 18.5201 13.0433 18.7101ZM13.0433 15.2101C12.9933 15.2501 12.9433 15.2901 12.8933 15.3301C12.8333 15.3701 12.7733 15.4001 12.7133 15.4201C12.6533 15.4501 12.5933 15.4701 12.5333 15.4801C12.4633 15.4901 12.4033 15.5001 12.3333 15.5001C12.0733 15.5001 11.8133 15.3901 11.6233 15.2101C11.4433 15.0201 11.3333 14.7601 11.3333 14.5001C11.3333 14.2401 11.4433 13.9801 11.6233 13.7901C11.7133 13.7001 11.8233 13.6301 11.9533 13.5801C12.3233 13.4201 12.7633 13.5101 13.0433 13.7901C13.2233 13.9801 13.3333 14.2401 13.3333 14.5001C13.3333 14.7601 13.2233 15.0201 13.0433 15.2101ZM16.5433 18.7101C16.3533 18.8901 16.0933 19.0001 15.8333 19.0001C15.5733 19.0001 15.3133 18.8901 15.1233 18.7101C14.9433 18.5201 14.8333 18.2601 14.8333 18.0001C14.8333 17.7401 14.9433 17.4801 15.1233 17.2901C15.4933 16.9201 16.1733 16.9201 16.5433 17.2901C16.7233 17.4801 16.8333 17.7401 16.8333 18.0001C16.8333 18.2601 16.7233 18.5201 16.5433 18.7101ZM16.5433 15.2101C16.4933 15.2501 16.4433 15.2901 16.3933 15.3301C16.3333 15.3701 16.2733 15.4001 16.2133 15.4201C16.1533 15.4501 16.0933 15.4701 16.0333 15.4801C15.9633 15.4901 15.8933 15.5001 15.8333 15.5001C15.5733 15.5001 15.3133 15.3901 15.1233 15.2101C14.9433 15.0201 14.8333 14.7601 14.8333 14.5001C14.8333 14.2401 14.9433 13.9801 15.1233 13.7901C15.2233 13.7001 15.3233 13.6301 15.4533 13.5801C15.6333 13.5001 15.8333 13.4801 16.0333 13.5201C16.0933 13.5301 16.1533 13.5501 16.2133 13.5801C16.2733 13.6001 16.3333 13.6301 16.3933 13.6701C16.4433 13.7101 16.4933 13.7501 16.5433 13.7901C16.7233 13.9801 16.8333 14.2401 16.8333 14.5001C16.8333 14.7601 16.7233 15.0201 16.5433 15.2101Z" fill="#00748C"/>
</svg>
