<svg width="17" height="16" viewBox="0 0 17 16" fill="none" xmlns="http://www.w3.org/2000/svg">
<path d="M11.2301 2.37337V1.33337C11.2301 1.06004 11.0035 0.833374 10.7301 0.833374C10.4568 0.833374 10.2301 1.06004 10.2301 1.33337V2.33337H5.8968V1.33337C5.8968 1.06004 5.67013 0.833374 5.3968 0.833374C5.12347 0.833374 4.8968 1.06004 4.8968 1.33337V2.37337C3.0968 2.54004 2.22347 3.61337 2.09013 5.20671C2.0768 5.40004 2.2368 5.56004 2.42347 5.56004H13.7035C13.8968 5.56004 14.0568 5.39337 14.0368 5.20671C13.9035 3.61337 13.0301 2.54004 11.2301 2.37337Z" fill="#B2C7CB"/>
<path d="M13.3968 6.56006H2.73014C2.36348 6.56006 2.06348 6.86006 2.06348 7.22673V11.3334C2.06348 13.3334 3.06348 14.6667 5.39681 14.6667H10.7301C13.0635 14.6667 14.0635 13.3334 14.0635 11.3334V7.22673C14.0635 6.86006 13.7635 6.56006 13.3968 6.56006ZM6.20348 12.1401C6.17014 12.1667 6.13681 12.2001 6.10348 12.2201C6.06348 12.2467 6.02348 12.2667 5.98348 12.2801C5.94348 12.3001 5.90348 12.3134 5.86348 12.3201C5.81681 12.3267 5.77681 12.3334 5.73014 12.3334C5.64348 12.3334 5.55681 12.3134 5.47681 12.2801C5.39014 12.2467 5.32348 12.2001 5.25681 12.1401C5.13681 12.0134 5.06348 11.8401 5.06348 11.6667C5.06348 11.4934 5.13681 11.3201 5.25681 11.1934C5.32348 11.1334 5.39014 11.0867 5.47681 11.0534C5.59681 11.0001 5.73014 10.9867 5.86348 11.0134C5.90348 11.0201 5.94348 11.0334 5.98348 11.0534C6.02348 11.0667 6.06348 11.0867 6.10348 11.1134C6.13681 11.1401 6.17014 11.1667 6.20348 11.1934C6.32348 11.3201 6.39681 11.4934 6.39681 11.6667C6.39681 11.8401 6.32348 12.0134 6.20348 12.1401ZM6.20348 9.80673C6.07681 9.92673 5.90348 10.0001 5.73014 10.0001C5.55681 10.0001 5.38348 9.92673 5.25681 9.80673C5.13681 9.68006 5.06348 9.50673 5.06348 9.33339C5.06348 9.16006 5.13681 8.98673 5.25681 8.86006C5.44348 8.67339 5.73681 8.61339 5.98348 8.72006C6.07014 8.75339 6.14348 8.80006 6.20348 8.86006C6.32348 8.98673 6.39681 9.16006 6.39681 9.33339C6.39681 9.50673 6.32348 9.68006 6.20348 9.80673ZM8.53681 12.1401C8.41014 12.2601 8.23681 12.3334 8.06348 12.3334C7.89014 12.3334 7.71681 12.2601 7.59014 12.1401C7.47014 12.0134 7.39681 11.8401 7.39681 11.6667C7.39681 11.4934 7.47014 11.3201 7.59014 11.1934C7.83681 10.9467 8.29014 10.9467 8.53681 11.1934C8.65681 11.3201 8.73014 11.4934 8.73014 11.6667C8.73014 11.8401 8.65681 12.0134 8.53681 12.1401ZM8.53681 9.80673C8.50348 9.83339 8.47014 9.86006 8.43681 9.88673C8.39681 9.91339 8.35681 9.93339 8.31681 9.94673C8.27681 9.96673 8.23681 9.98006 8.19681 9.98672C8.15014 9.99339 8.11014 10.0001 8.06348 10.0001C7.89014 10.0001 7.71681 9.92673 7.59014 9.80673C7.47014 9.68006 7.39681 9.50673 7.39681 9.33339C7.39681 9.16006 7.47014 8.98673 7.59014 8.86006C7.65014 8.80006 7.72348 8.75339 7.81014 8.72006C8.05681 8.61339 8.35014 8.67339 8.53681 8.86006C8.65681 8.98673 8.73014 9.16006 8.73014 9.33339C8.73014 9.50673 8.65681 9.68006 8.53681 9.80673ZM10.8701 12.1401C10.7435 12.2601 10.5701 12.3334 10.3968 12.3334C10.2235 12.3334 10.0501 12.2601 9.92348 12.1401C9.80348 12.0134 9.73014 11.8401 9.73014 11.6667C9.73014 11.4934 9.80348 11.3201 9.92348 11.1934C10.1701 10.9467 10.6235 10.9467 10.8701 11.1934C10.9901 11.3201 11.0635 11.4934 11.0635 11.6667C11.0635 11.8401 10.9901 12.0134 10.8701 12.1401ZM10.8701 9.80673C10.8368 9.83339 10.8035 9.86006 10.7701 9.88673C10.7301 9.91339 10.6901 9.93339 10.6501 9.94673C10.6101 9.96673 10.5701 9.98006 10.5301 9.98672C10.4835 9.99339 10.4368 10.0001 10.3968 10.0001C10.2235 10.0001 10.0501 9.92673 9.92348 9.80673C9.80348 9.68006 9.73014 9.50673 9.73014 9.33339C9.73014 9.16006 9.80348 8.98673 9.92348 8.86006C9.99014 8.80006 10.0568 8.75339 10.1435 8.72006C10.2635 8.66673 10.3968 8.65339 10.5301 8.68006C10.5701 8.68673 10.6101 8.70006 10.6501 8.72006C10.6901 8.73339 10.7301 8.75339 10.7701 8.78006C10.8035 8.80673 10.8368 8.83339 10.8701 8.86006C10.9901 8.98673 11.0635 9.16006 11.0635 9.33339C11.0635 9.50673 10.9901 9.68006 10.8701 9.80673Z" fill="#B2C7CB"/>
</svg>
