<svg width="16" height="16" viewBox="0 0 16 16" fill="none" xmlns="http://www.w3.org/2000/svg">
<g clip-path="url(#clip0_3802_5516)">
<path d="M12.9334 12.0444C12.4445 12 11.9556 12.1778 11.5556 12.5333C11.0667 13.0222 10.2667 13.0222 9.73336 12.5333C9.28891 12.2222 8.80003 12.0444 8.26669 12.0444C7.73336 12 7.20003 12.1778 6.80003 12.5333C6.53336 12.7556 6.22225 12.8889 5.86669 12.8889C5.51114 12.8889 5.20003 12.7556 4.93336 12.5333C4.48892 12.1778 3.95558 12 3.42225 12C2.88892 12 2.35558 12.1778 1.91114 12.5333C1.64447 12.7556 1.24447 12.8889 0.888916 12.8889V13.7778C1.46669 13.8222 2.04447 13.6444 2.48892 13.2444C2.75558 13.0222 3.15558 12.8889 3.51114 12.8889C3.82225 12.8889 4.1778 13.0222 4.44447 13.2444C5.24447 13.9556 6.48891 13.9556 7.33336 13.2444C7.60003 13.0222 7.91114 12.8889 8.26669 12.8889C8.5778 12.8889 8.88891 13.0222 9.15558 13.2444C10 13.9556 11.2 13.9556 12.0445 13.2444C12.2667 13.0222 12.6222 12.8889 12.9334 12.8889C13.2445 12.8889 13.5556 13.0222 13.7778 13.2444C14.1778 13.5556 14.6222 13.7333 15.1111 13.7778V12.8889C14.6667 12.8889 14.5778 12.7111 14.3556 12.5333C13.9556 12.2222 13.4667 12.0444 12.9334 12.0444Z" fill="#00748C"/>
<path d="M2.66671 10.2222C2.66671 9.95555 2.88893 9.77777 3.1556 9.77777H14.2223L12.6667 11.1556H12.7556C13.1112 11.1556 13.4667 11.2444 13.7334 11.3778L14.8445 10.4L14.9334 10.3111C15.2445 9.95555 15.2 9.37777 14.8445 9.06666C14.6667 8.97777 14.4889 8.88889 14.2667 8.88889H3.1556C2.40004 8.88889 1.82227 9.46666 1.82227 10.2222V11.6444C2.04449 11.4222 2.3556 11.2889 2.66671 11.1556V10.2222Z" fill="#00748C"/>
<path d="M3.95558 8.44445H6.66669V4.97778C6.66669 4.71112 6.53336 4.44445 6.31113 4.26667C5.91113 3.95556 5.33336 4.04445 5.06669 4.44445L3.24447 7.06667C3.06669 7.33334 3.06669 7.68889 3.20002 8.00001C3.33336 8.26667 3.64447 8.44445 3.95558 8.44445ZM5.82225 4.97778L5.7778 7.55556H3.95558L5.82225 4.97778Z" fill="#00748C"/>
<path d="M11.5555 7.99999C11.7333 7.73332 11.7333 7.37777 11.5555 7.1111L8.75553 2.48888C8.57775 2.22221 8.31108 2.04443 7.99997 2.04443C7.51108 2.04443 7.11108 2.44443 7.11108 2.93332V8.44444H10.8C11.1111 8.44444 11.4222 8.26666 11.5555 7.99999ZM7.95553 2.93332L10.8 7.59999H7.95553V2.93332Z" fill="#00748C"/>
</g>
<defs>
<clipPath id="clip0_3802_5516">
<rect width="16" height="16" fill="white"/>
</clipPath>
</defs>
</svg>
