<svg width="20" height="20" viewBox="0 0 20 20" fill="none" xmlns="http://www.w3.org/2000/svg">
<path d="M2.4165 4.58331C2.4165 4.4507 2.46918 4.32353 2.56295 4.22976C2.65672 4.13599 2.7839 4.08331 2.9165 4.08331H17.0832C17.2158 4.08331 17.343 4.13599 17.4367 4.22976C17.5305 4.32353 17.5832 4.45071 17.5832 4.58331C17.5832 4.71592 17.5305 4.8431 17.4367 4.93687C17.343 5.03063 17.2158 5.08331 17.0832 5.08331H2.9165C2.7839 5.08331 2.65672 5.03063 2.56295 4.93687C2.46918 4.8431 2.4165 4.71592 2.4165 4.58331ZM5.74984 9.58331C5.74984 9.4507 5.80252 9.32353 5.89628 9.22976C5.99005 9.13599 6.11723 9.08331 6.24984 9.08331H13.7498C13.8824 9.08331 14.0096 9.13599 14.1034 9.22976C14.1972 9.32353 14.2498 9.45071 14.2498 9.58331C14.2498 9.71592 14.1972 9.8431 14.1034 9.93687C14.0096 10.0306 13.8824 10.0833 13.7498 10.0833H6.24984C6.11723 10.0833 5.99005 10.0306 5.89628 9.93687C5.80252 9.8431 5.74984 9.71592 5.74984 9.58331ZM8.39628 14.2298C8.49005 14.136 8.61723 14.0833 8.74984 14.0833H11.2498C11.3824 14.0833 11.5096 14.136 11.6034 14.2298C11.6972 14.3235 11.7498 14.4507 11.7498 14.5833C11.7498 14.7159 11.6972 14.8431 11.6034 14.9369C11.5096 15.0306 11.3824 15.0833 11.2498 15.0833H8.74984C8.61723 15.0833 8.49005 15.0306 8.39628 14.9369C8.30252 14.8431 8.24984 14.7159 8.24984 14.5833C8.24984 14.4507 8.30252 14.3235 8.39628 14.2298Z" fill="black" stroke="white" stroke-width="1.5"/>
</svg>
