<svg width="20" height="20" viewBox="0 0 20 20" fill="none" xmlns="http://www.w3.org/2000/svg">
<path d="M2.41669 4.58331C2.41669 4.4507 2.46937 4.32353 2.56313 4.22976C2.6569 4.13599 2.78408 4.08331 2.91669 4.08331H17.0834C17.216 4.08331 17.3431 4.13599 17.4369 4.22976C17.5307 4.32353 17.5834 4.45071 17.5834 4.58331C17.5834 4.71592 17.5307 4.8431 17.4369 4.93687C17.3431 5.03063 17.216 5.08331 17.0834 5.08331H2.91669C2.78408 5.08331 2.6569 5.03063 2.56313 4.93687C2.46937 4.8431 2.41669 4.71592 2.41669 4.58331ZM5.75002 9.58331C5.75002 9.4507 5.8027 9.32353 5.89647 9.22976C5.99023 9.13599 6.11741 9.08331 6.25002 9.08331H13.75C13.8826 9.08331 14.0098 9.13599 14.1036 9.22976C14.1973 9.32353 14.25 9.45071 14.25 9.58331C14.25 9.71592 14.1973 9.8431 14.1036 9.93687C14.0098 10.0306 13.8826 10.0833 13.75 10.0833H6.25002C6.11741 10.0833 5.99023 10.0306 5.89647 9.93687C5.8027 9.8431 5.75002 9.71592 5.75002 9.58331ZM8.39647 14.2298C8.49024 14.136 8.61741 14.0833 8.75002 14.0833H11.25C11.3826 14.0833 11.5098 14.136 11.6036 14.2298C11.6973 14.3235 11.75 14.4507 11.75 14.5833C11.75 14.7159 11.6973 14.8431 11.6036 14.9369C11.5098 15.0306 11.3826 15.0833 11.25 15.0833H8.75002C8.61741 15.0833 8.49024 15.0306 8.39647 14.9369C8.3027 14.8431 8.25002 14.7159 8.25002 14.5833C8.25002 14.4507 8.3027 14.3235 8.39647 14.2298Z" fill="#18292D" stroke="#00748C" stroke-width="1.5"/>
</svg>
