<svg width="17" height="16" viewBox="0 0 17 16" fill="none" xmlns="http://www.w3.org/2000/svg">
<g clip-path="url(#clip0_3895_10108)">
<path d="M13.9367 5.63329C13.2367 2.55329 10.55 1.16663 8.19001 1.16663C8.19001 1.16663 8.19 1.16663 8.18334 1.16663C5.83 1.16663 3.13667 2.54663 2.43667 5.62663C1.65667 9.06663 3.76334 11.98 5.67001 13.8133C6.37667 14.4933 7.28334 14.8333 8.19001 14.8333C9.09667 14.8333 10.0033 14.4933 10.7033 13.8133C12.61 11.98 14.7167 9.07329 13.9367 5.63329ZM8.19001 8.97329C7.03 8.97329 6.09001 8.03329 6.09001 6.87329C6.09001 5.71329 7.03 4.77329 8.19001 4.77329C9.35001 4.77329 10.29 5.71329 10.29 6.87329C10.29 8.03329 9.35001 8.97329 8.19001 8.97329Z" fill="#B2C7CB"/>
</g>
<defs>
<clipPath id="clip0_3895_10108">
<rect width="16" height="16" fill="white" transform="translate(0.189941)"/>
</clipPath>
</defs>
</svg>
