<svg width="146" height="25" viewBox="0 0 146 25" fill="none" xmlns="http://www.w3.org/2000/svg">
<g clip-path="url(#clip0_3802_26149)">
<path d="M60.0673 19.3172H56.3826V14.1048H52.2486V19.3172H48.564V6.46582H52.2486V11.4087H56.3826V6.46582H60.0673V19.3172Z" fill="white"/>
<path d="M76.0641 19.3172H72.4693V17.8793C72.02 18.5084 71.4808 18.9577 70.7618 19.2273C70.0429 19.5868 69.3239 19.6767 68.6049 19.6767C66.7177 19.6767 65.1899 19.0476 64.0216 17.6995C62.8533 16.4414 62.2242 14.8237 62.2242 12.9364C62.2242 10.9593 62.8533 9.34164 64.0216 8.08346C65.1899 6.73541 66.7177 6.10632 68.6049 6.10632C70.4023 6.10632 71.6605 6.64554 72.4693 7.81385V6.4658H76.0641V19.3172ZM72.4693 13.0263C72.4693 11.9479 72.1997 11.139 71.5707 10.4201C70.9416 9.70112 70.0429 9.34164 69.0543 9.34164C68.0657 9.34164 67.3468 9.70112 66.7177 10.4201C66.0886 11.139 65.7291 11.9479 65.7291 12.9364C65.7291 13.8351 66.0886 14.7338 66.7177 15.4528C67.3468 16.1718 68.1556 16.5312 69.1442 16.5312C70.0429 16.5312 70.8517 16.1718 71.4808 15.4528C72.1997 14.7338 72.4693 13.925 72.4693 13.0263Z" fill="white"/>
<path d="M90.1737 19.3172H86.5789L83.8828 10.9593L81.2766 19.3172H77.6818L82.0854 6.46582H85.7701L90.1737 19.3172Z" fill="white"/>
<path d="M97.7228 6.10632C99.6999 6.10632 101.407 6.73541 102.666 7.99359C104.014 9.25177 104.643 10.8694 104.643 12.8466C104.643 14.8237 104.014 16.4414 102.666 17.7894C101.407 19.0476 99.6999 19.6767 97.7228 19.6767C95.7456 19.6767 94.128 19.0476 92.7799 17.7894C91.5217 16.4414 90.8028 14.8237 90.8028 12.8466C90.8028 10.9593 91.5217 9.34164 92.7799 7.99359C94.128 6.73541 95.7456 6.10632 97.7228 6.10632ZM101.138 12.9364C101.138 11.9479 100.778 11.0492 100.149 10.4201C99.5202 9.70112 98.7113 9.34164 97.7228 9.34164C96.7342 9.34164 95.9254 9.70112 95.2963 10.4201C94.6672 11.0492 94.3976 11.9479 94.3976 12.9364C94.3976 13.925 94.7571 14.7338 95.2963 15.4528C95.9254 16.0819 96.7342 16.4414 97.7228 16.4414C98.7113 16.4414 99.5202 16.0819 100.149 15.4528C100.778 14.7338 101.138 13.925 101.138 12.9364Z" fill="white"/>
<path d="M118.932 22.0133H115.966V19.3172H108.417V22.0133H105.542V16.4414H106.979L110.305 6.46582H114.169L117.494 16.4414H118.932V22.0133ZM113.989 16.4414L112.192 10.6897L110.484 16.4414H113.989Z" fill="white"/>
<path d="M132.233 19.3172H128.009L124.055 13.1162V19.3172H120.46V6.46582H124.055V12.3972L128.099 6.46582H132.143L127.649 12.7567L132.233 19.3172Z" fill="white"/>
<path d="M145.264 6.46582L138.344 24.7993H134.659L137.086 18.778L132.233 6.46582H135.917L138.883 14.4642L141.579 6.46582H145.264Z" fill="white"/>
<path fill-rule="evenodd" clip-rule="evenodd" d="M35.2632 3.23049V3.76971C35.2632 3.85958 35.2632 3.76971 35.2632 3.85958L35.3531 5.74685C35.3531 5.83672 35.3531 5.83672 35.3531 5.92659C35.443 6.82529 35.443 7.72399 35.5329 8.44295L36.1619 12.577C36.1619 12.8466 36.1619 12.9364 36.2518 13.1162L36.5214 14.644C36.9708 16.2616 37.8695 18.9577 38.4986 20.6653C38.5884 20.9349 38.7682 21.3842 38.858 21.7437H26.2763C26.0066 21.7437 25.5573 21.7437 25.4674 21.7437C25.1079 21.7437 24.8383 21.7437 24.5687 21.7437L24.8383 20.5754C24.9282 20.2159 25.1978 19.4969 25.2877 19.0476L28.6129 7.90373C28.7027 7.63412 28.7027 7.36451 28.7926 7.0949C28.8825 6.91516 28.9724 6.55568 29.0622 6.28607C29.242 5.83672 29.1521 6.01646 29.4217 5.74685L32.1178 3.41023C32.1178 3.41023 32.1178 3.41023 32.2077 3.41023L32.657 2.96088L32.7469 2.87101L35.3531 0.624268C35.443 0.804007 35.3531 2.24193 35.3531 2.69128C35.2632 2.87101 35.2632 2.87101 35.2632 2.96088V3.23049Z" fill="#FFDA57"/>
<path fill-rule="evenodd" clip-rule="evenodd" d="M23.4902 20.4855L16.4804 20.126C15.6716 20.126 15.8513 20.3957 16.3006 18.8679C16.3006 18.5084 16.4804 18.2388 16.5703 17.9692L18.3677 11.5884C18.4575 11.3188 18.5474 10.9593 18.6373 10.6897L19.4461 7.99361C19.536 7.81387 19.536 7.724 19.536 7.54426C19.6258 7.27465 19.6258 7.27465 19.7157 7.09491C19.8056 6.91517 20.1651 5.38738 20.2549 5.29751L23.4004 3.14063C23.4902 3.05076 23.5801 2.96089 23.7598 2.87102C24.1193 2.60141 25.5572 1.61285 25.8269 1.43311L25.5572 2.24193C25.4674 2.3318 25.4674 2.42167 25.4674 2.51154L25.018 3.67985C24.9282 4.03933 24.7484 4.39881 24.6585 4.75829C24.2991 5.74686 23.67 8.08348 23.5801 9.07205C23.4902 9.34166 23.4902 9.43153 23.4004 9.79101L23.3105 10.4201C23.0409 12.7567 22.951 12.9365 22.951 15.6325C22.951 16.3515 23.1308 18.6881 23.2206 19.3172C23.3105 19.5868 23.4004 19.7666 23.4004 19.9463L23.4902 20.4855Z" fill="#FF0055"/>
<path fill-rule="evenodd" clip-rule="evenodd" d="M12.8856 18.9577L3.80875 17.2502C3.53914 17.2502 3.3594 17.1603 3.08979 17.1603C2.82018 17.0704 2.55057 16.9806 2.28096 16.9806L0.753174 16.6211L2.99992 15.1832C3.08979 15.0933 3.17966 15.0034 3.26953 15.0034L4.43784 14.1946C4.52771 14.1047 4.52771 14.1047 4.70745 14.0149C4.88719 13.925 5.06693 13.7452 5.24667 13.6554C5.51628 13.4756 5.60615 13.3858 5.78589 13.2959L7.67316 12.0377C7.76303 11.9478 7.76303 11.9478 7.8529 11.9478L12.0768 9.07201C12.1667 8.98214 12.2565 8.98214 12.3464 8.89227C13.7843 7.9037 15.6716 6.64552 17.1994 5.65696L18.9069 4.48865L16.2108 8.8024C16.1209 8.89227 16.0311 9.07201 15.9412 9.16188L15.2222 10.6897C14.5033 12.1276 13.7843 14.1946 13.5147 15.7224C13.4248 16.3515 13.2451 16.711 13.1552 17.34C13.1552 17.4299 13.1552 17.4299 13.1552 17.6097L12.8856 18.9577Z" fill="#00A3A1"/>
</g>
<defs>
<clipPath id="clip0_3802_26149">
<rect width="144.511" height="24.2197" fill="white" transform="translate(0.753174 0.601929)"/>
</clipPath>
</defs>
</svg>
