<svg width="179" height="30" viewBox="0 0 179 30" fill="none" xmlns="http://www.w3.org/2000/svg">
<g clip-path="url(#clip0_3802_2954)">
<path d="M73.4701 23.182H68.9061V16.7255H63.7854V23.182H59.2214V7.26343H63.7854V13.3859H68.9061V7.26343H73.4701V23.182Z" fill="#00848F"/>
<path d="M93.2848 23.1819H88.8321V21.4008C88.2755 22.1801 87.6076 22.7366 86.717 23.0706C85.8265 23.5159 84.9359 23.6272 84.0454 23.6272C81.7077 23.6272 79.8153 22.848 78.3682 21.1782C76.921 19.6197 76.1418 17.616 76.1418 15.2783C76.1418 12.8293 76.921 10.8256 78.3682 9.26712C79.8153 7.59734 81.7077 6.81812 84.0454 6.81812C86.2718 6.81812 87.8302 7.48603 88.8321 8.93316V7.26339H93.2848V23.1819ZM88.8321 15.3896C88.8321 14.0538 88.4981 13.0519 87.7189 12.1614C86.9397 11.2709 85.8265 10.8256 84.602 10.8256C83.3775 10.8256 82.4869 11.2709 81.7077 12.1614C80.9285 13.0519 80.4832 14.0538 80.4832 15.2783C80.4832 16.3915 80.9285 17.5047 81.7077 18.3952C82.4869 19.2858 83.4888 19.7311 84.7133 19.7311C85.8265 19.7311 86.8283 19.2858 87.6076 18.3952C88.4981 17.5047 88.8321 16.5028 88.8321 15.3896Z" fill="#00848F"/>
<path d="M110.762 23.182H106.309L102.969 12.8293L99.7412 23.182H95.2885L100.743 7.26343H105.307L110.762 23.182Z" fill="#0A6E8D"/>
<path d="M120.113 6.81812C122.562 6.81812 124.677 7.59734 126.235 9.1558C127.905 10.7143 128.684 12.718 128.684 15.167C128.684 17.616 127.905 19.6197 126.235 21.2895C124.677 22.848 122.562 23.6272 120.113 23.6272C117.664 23.6272 115.66 22.848 113.99 21.2895C112.432 19.6197 111.541 17.616 111.541 15.167C111.541 12.8293 112.432 10.8256 113.99 9.1558C115.66 7.59734 117.664 6.81812 120.113 6.81812ZM124.343 15.2783C124.343 14.0538 123.897 12.9406 123.118 12.1614C122.339 11.2709 121.337 10.8256 120.113 10.8256C118.888 10.8256 117.886 11.2709 117.107 12.1614C116.328 12.9406 115.994 14.0538 115.994 15.2783C115.994 16.5028 116.439 17.5047 117.107 18.3952C117.886 19.1745 118.888 19.6197 120.113 19.6197C121.337 19.6197 122.339 19.1745 123.118 18.3952C123.897 17.5047 124.343 16.5028 124.343 15.2783Z" fill="#0A6E8D"/>
<path d="M146.384 26.5215H142.71V23.182H133.359V26.5215H129.797V19.6198H131.578L135.697 7.26343H140.484L144.603 19.6198H146.384V26.5215ZM140.261 19.6198L138.035 12.4954L135.92 19.6198H140.261Z" fill="#0A6E8D"/>
<path d="M162.859 23.182H157.627L152.729 15.501V23.182H148.276V7.26343H152.729V14.6104L157.738 7.26343H162.747L157.182 15.0557L162.859 23.182Z" fill="#0A6E8D"/>
<path d="M179 7.26343L170.428 29.9724H165.864L168.87 22.514L162.859 7.26343H167.423L171.096 17.1708L174.436 7.26343H179Z" fill="#0A6E8D"/>
<path fill-rule="evenodd" clip-rule="evenodd" d="M42.7463 3.25582V3.92373C42.7463 4.03505 42.7463 3.92373 42.7463 4.03505L42.8576 6.37274C42.8576 6.48406 42.8576 6.48406 42.8576 6.59537C42.9689 7.70856 42.9689 8.82174 43.0802 9.71229L43.8595 14.8329C43.8595 15.1669 43.8595 15.2782 43.9708 15.5008L44.3047 17.3933C44.8613 19.397 45.9745 22.7365 46.7537 24.8516C46.8651 25.1855 47.0877 25.7421 47.199 26.1874H31.6144C31.2805 26.1874 30.7239 26.1874 30.6126 26.1874C30.1673 26.1874 29.8333 26.1874 29.4994 26.1874L29.8333 24.7403C29.9447 24.295 30.2786 23.4045 30.3899 22.8479L34.5087 9.04438C34.62 8.71042 34.62 8.37647 34.7314 8.04251C34.8427 7.81988 34.954 7.3746 35.0653 7.04065C35.2879 6.48406 35.1766 6.70669 35.5106 6.37274L38.8501 3.47846C38.8501 3.47846 38.8501 3.47846 38.9615 3.47846L39.518 2.92187L39.6294 2.81055L42.8576 0.0275879C42.9689 0.250225 42.8576 2.03132 42.8576 2.58791C42.7463 2.81055 42.7463 2.81055 42.7463 2.92187V3.25582Z" fill="#FFDA57"/>
<path fill-rule="evenodd" clip-rule="evenodd" d="M28.1635 24.629L19.4807 24.1838C18.4788 24.1838 18.7015 24.5177 19.2581 22.6253C19.2581 22.18 19.4807 21.8461 19.592 21.5121L21.8184 13.6085C21.9297 13.2746 22.041 12.8293 22.1524 12.4953L23.1542 9.15578C23.2655 8.93315 23.2655 8.82183 23.2655 8.59919C23.3769 8.26524 23.3769 8.26524 23.4882 8.0426C23.5995 7.81996 24.0448 5.92755 24.1561 5.81623L28.0522 3.14459C28.1635 3.03327 28.2749 2.92195 28.4975 2.81064C28.9428 2.47668 30.7239 1.25218 31.0578 1.02954L30.7239 2.03141C30.6126 2.14273 30.6126 2.25404 30.6126 2.36536L30.056 3.8125C29.9446 4.25777 29.722 4.70305 29.6107 5.14832C29.1654 6.37282 28.3862 9.2671 28.2749 10.4916C28.1635 10.8256 28.1635 10.9369 28.0522 11.3822L27.9409 12.1614C27.607 15.0557 27.4956 15.2783 27.4956 18.6178C27.4956 19.5084 27.7183 22.4027 27.8296 23.1819C27.9409 23.5159 28.0522 23.7385 28.0522 23.9611L28.1635 24.629Z" fill="#FF0055"/>
<path fill-rule="evenodd" clip-rule="evenodd" d="M15.028 22.7365L3.78483 20.6214C3.45087 20.6214 3.22823 20.5101 2.89428 20.5101C2.56032 20.3988 2.22637 20.2875 1.89241 20.2875L0 19.8422L2.78296 18.0611C2.89428 17.9498 3.0056 17.8385 3.11692 17.8385L4.56405 16.8366C4.67537 16.7253 4.67537 16.7253 4.89801 16.614C5.12065 16.5026 5.34328 16.28 5.56592 16.1687C5.89988 15.946 6.01119 15.8347 6.23383 15.7234L8.57152 14.165C8.68284 14.0536 8.68284 14.0536 8.79415 14.0536L14.0261 10.4914C14.1374 10.3801 14.2488 10.3801 14.3601 10.2688C16.1412 9.04431 18.4789 7.48585 20.3713 6.26135L22.4863 4.81421L19.1468 10.1575C19.0354 10.2688 18.9241 10.4914 18.8128 10.6028L17.9223 12.4952C17.0317 14.2763 16.1412 16.8366 15.8072 18.729C15.6959 19.5082 15.4733 19.9535 15.3619 20.7327C15.3619 20.8441 15.3619 20.8441 15.3619 21.0667L15.028 22.7365Z" fill="#00A3A1"/>
</g>
<defs>
<clipPath id="clip0_3802_2954">
<rect width="179" height="30" fill="white"/>
</clipPath>
</defs>
</svg>
