<svg width="32" height="18" viewBox="0 0 32 18" fill="none" xmlns="http://www.w3.org/2000/svg">
<path fill-rule="evenodd" clip-rule="evenodd" d="M28.4973 2.43219V2.87746C28.4973 2.95167 28.4973 2.87746 28.4973 2.95167L28.5715 4.51013C28.5715 4.58434 28.5715 4.58434 28.5715 4.65855C28.6457 5.40068 28.6457 6.1428 28.7199 6.7365L29.2394 10.1503C29.2394 10.3729 29.2394 10.4471 29.3136 10.5955L29.5362 11.8571C29.9073 13.193 30.6494 15.4193 31.1689 16.8294C31.2431 17.052 31.3916 17.4231 31.4658 17.7199H21.076C20.8534 17.7199 20.4823 17.7199 20.4081 17.7199C20.1113 17.7199 19.8887 17.7199 19.666 17.7199L19.8887 16.7552C19.9629 16.4583 20.1855 15.8646 20.2597 15.4935L23.0056 6.29122C23.0798 6.06859 23.0798 5.84595 23.154 5.62331C23.2282 5.47489 23.3024 5.17804 23.3766 4.9554C23.5251 4.58434 23.4508 4.73277 23.6735 4.51013L25.8998 2.58061C25.8998 2.58061 25.8998 2.58061 25.9741 2.58061L26.3451 2.20955L26.4193 2.13534L28.5715 0.280029C28.6457 0.428454 28.5715 1.61585 28.5715 1.98691C28.4973 2.13534 28.4973 2.13534 28.4973 2.20955V2.43219Z" fill="#FFDA57"/>
<path fill-rule="evenodd" clip-rule="evenodd" d="M18.7758 16.681L12.9873 16.3842C12.3194 16.3842 12.4678 16.6068 12.8388 15.3452C12.8388 15.0483 12.9873 14.8257 13.0615 14.6031L14.5457 9.33399C14.6199 9.11135 14.6941 8.8145 14.7684 8.59186L15.4363 6.3655C15.5105 6.21707 15.5105 6.14286 15.5105 5.99443C15.5847 5.7718 15.5847 5.7718 15.6589 5.62337C15.7331 5.47495 16.03 4.21334 16.1042 4.13913L18.7016 2.35803C18.7758 2.28382 18.85 2.20961 18.9985 2.13539C19.2953 1.91276 20.4827 1.09642 20.7053 0.947998L20.4827 1.61591C20.4085 1.69012 20.4085 1.76433 20.4085 1.83855L20.0374 2.80331C19.9632 3.10015 19.8148 3.397 19.7406 3.69385C19.4437 4.51019 18.9242 6.43971 18.85 7.25604C18.7758 7.47868 18.7758 7.55289 18.7016 7.84974L18.6274 8.36923C18.4048 10.2987 18.3305 10.4472 18.3305 12.6735C18.3305 13.2672 18.479 15.1968 18.5532 15.7162C18.6274 15.9389 18.7016 16.0873 18.7016 16.2357L18.7758 16.681Z" fill="#FF0055"/>
<path fill-rule="evenodd" clip-rule="evenodd" d="M10.0187 15.4194L2.52322 14.0093C2.30058 14.0093 2.15216 13.9351 1.92952 13.9351C1.70688 13.8609 1.48425 13.7867 1.26161 13.7867L0 13.4898L1.85531 12.3025C1.92952 12.2282 2.00373 12.154 2.07794 12.154L3.0427 11.4861C3.11692 11.4119 3.11692 11.4119 3.26534 11.3377C3.41377 11.2635 3.56219 11.1151 3.71061 11.0408C3.93325 10.8924 4.00746 10.8182 4.15589 10.744L5.71435 9.70502C5.78856 9.63081 5.78856 9.63081 5.86277 9.63081L9.35075 7.25602C9.42496 7.18181 9.49917 7.18181 9.57339 7.10759C10.7608 6.29126 12.3192 5.25229 13.5808 4.43595L14.9909 3.47119L12.7645 7.03338C12.6903 7.10759 12.6161 7.25602 12.5419 7.33023L11.9482 8.59184C11.3545 9.77923 10.7608 11.4861 10.5381 12.7477C10.4639 13.2672 10.3155 13.5641 10.2413 14.0835C10.2413 14.1578 10.2413 14.1578 10.2413 14.3062L10.0187 15.4194Z" fill="#00A3A1"/>
</svg>
