<svg width="16" height="16" viewBox="0 0 16 16" fill="none" xmlns="http://www.w3.org/2000/svg">
<path d="M6.10646 7.74668C6.08646 7.74668 6.07313 7.74668 6.05313 7.74668C6.01979 7.74001 5.97313 7.74001 5.93313 7.74668C3.99979 7.68668 2.53979 6.16668 2.53979 4.29334C2.53979 2.38668 4.09313 0.833344 5.99979 0.833344C7.90646 0.833344 9.45979 2.38668 9.45979 4.29334C9.45313 6.16668 7.98646 7.68668 6.12646 7.74668C6.11979 7.74668 6.11313 7.74668 6.10646 7.74668ZM5.99979 1.83334C4.64646 1.83334 3.53979 2.94001 3.53979 4.29334C3.53979 5.62668 4.57979 6.70001 5.90646 6.74668C5.94646 6.74001 6.03313 6.74001 6.11979 6.74668C7.42646 6.68668 8.45313 5.61334 8.45979 4.29334C8.45979 2.94001 7.35313 1.83334 5.99979 1.83334Z" fill="#00748C"/>
<path d="M11.0265 7.83332C11.0065 7.83332 10.9865 7.83332 10.9665 7.82666C10.6931 7.85332 10.4131 7.65999 10.3865 7.38666C10.3598 7.11332 10.5265 6.86666 10.7998 6.83332C10.8798 6.82666 10.9665 6.82666 11.0398 6.82666C12.0131 6.77332 12.7731 5.97332 12.7731 4.99332C12.7731 3.97999 11.9531 3.15999 10.9398 3.15999C10.6665 3.16666 10.4398 2.93999 10.4398 2.66666C10.4398 2.39332 10.6665 2.16666 10.9398 2.16666C12.4998 2.16666 13.7731 3.43999 13.7731 4.99999C13.7731 6.53332 12.5731 7.77332 11.0465 7.83332C11.0398 7.83332 11.0331 7.83332 11.0265 7.83332Z" fill="#00748C"/>
<path d="M6.11307 15.0333C4.80641 15.0333 3.49307 14.7 2.49974 14.0333C1.57307 13.42 1.06641 12.58 1.06641 11.6667C1.06641 10.7533 1.57307 9.90666 2.49974 9.28666C4.49974 7.95999 7.73974 7.95999 9.72641 9.28666C10.6464 9.89999 11.1597 10.74 11.1597 11.6533C11.1597 12.5667 10.6531 13.4133 9.72641 14.0333C8.72641 14.7 7.41974 15.0333 6.11307 15.0333ZM3.05307 10.1267C2.41307 10.5533 2.06641 11.1 2.06641 11.6733C2.06641 12.24 2.41974 12.7867 3.05307 13.2067C4.71307 14.32 7.51307 14.32 9.17307 13.2067C9.81307 12.78 10.1597 12.2333 10.1597 11.66C10.1597 11.0933 9.80641 10.5467 9.17307 10.1267C7.51307 9.01999 4.71307 9.01999 3.05307 10.1267Z" fill="#00748C"/>
<path d="M12.2264 13.8333C11.9931 13.8333 11.7864 13.6733 11.7397 13.4333C11.6864 13.16 11.8597 12.9 12.1264 12.84C12.5464 12.7533 12.9331 12.5867 13.2331 12.3533C13.6131 12.0667 13.8197 11.7067 13.8197 11.3267C13.8197 10.9467 13.6131 10.5867 13.2397 10.3067C12.9464 10.08 12.5797 9.92001 12.1464 9.82001C11.8797 9.76001 11.7064 9.49335 11.7664 9.22001C11.8264 8.95335 12.0931 8.78001 12.3664 8.84001C12.9397 8.96668 13.4397 9.19335 13.8464 9.50668C14.4664 9.97335 14.8197 10.6333 14.8197 11.3267C14.8197 12.02 14.4597 12.68 13.8397 13.1533C13.4264 13.4733 12.9064 13.7067 12.3331 13.82C12.2931 13.8333 12.2597 13.8333 12.2264 13.8333Z" fill="#00748C"/>
</svg>
