<svg width="15" height="14" viewBox="0 0 15 14" fill="none" xmlns="http://www.w3.org/2000/svg">
<path d="M12.4835 12.25L9.9501 9.71658M9.9501 9.71658C10.3835 9.28323 10.7272 8.76877 10.9617 8.20257C11.1963 7.63637 11.317 7.02952 11.317 6.41666C11.317 5.80381 11.1963 5.19696 10.9617 4.63076C10.7272 4.06456 10.3835 3.5501 9.9501 3.11675C9.51675 2.6834 9.00229 2.33964 8.43609 2.10512C7.86989 1.87059 7.26304 1.74988 6.65019 1.74988C6.03733 1.74988 5.43048 1.87059 4.86428 2.10512C4.29808 2.33964 3.78362 2.6834 3.35027 3.11675C2.47508 3.99194 1.9834 5.17896 1.9834 6.41666C1.9834 7.65437 2.47508 8.84139 3.35027 9.71658C4.22546 10.5918 5.41248 11.0835 6.65019 11.0835C7.88789 11.0835 9.07491 10.5918 9.9501 9.71658Z" stroke="#B2C7CB" stroke-linecap="round" stroke-linejoin="round"/>
</svg>
