<svg width="14" height="14" viewBox="0 0 14 14" fill="none" xmlns="http://www.w3.org/2000/svg">
<path d="M2.93604 7.52734C3.59229 8.18359 4.38916 8.51172 5.32666 8.51172C6.26416 8.51172 7.06104 8.18359 7.71729 7.52734C8.37354 6.87109 8.70166 6.07422 8.70166 5.13672C8.70166 4.19922 8.37354 3.40234 7.71729 2.74609C7.06104 2.08984 6.26416 1.76172 5.32666 1.76172C4.38916 1.76172 3.59229 2.08984 2.93604 2.74609C2.27979 3.40234 1.95166 4.19922 1.95166 5.13672C1.95166 6.07422 2.27979 6.87109 2.93604 7.52734ZM9.82666 8.51172L13.5532 12.2383L12.4282 13.3633L8.70166 9.63672V9.03906L8.49072 8.82812C7.6001 9.60156 6.54541 9.98828 5.32666 9.98828C3.96729 9.98828 2.80713 9.51953 1.84619 8.58203C0.908691 7.64453 0.439941 6.49609 0.439941 5.13672C0.439941 3.77734 0.908691 2.62891 1.84619 1.69141C2.80713 0.730469 3.96729 0.25 5.32666 0.25C6.68604 0.25 7.83447 0.730469 8.77197 1.69141C9.70947 2.62891 10.1782 3.77734 10.1782 5.13672C10.1782 5.62891 10.061 6.19141 9.82666 6.82422C9.59229 7.43359 9.32275 7.92578 9.01807 8.30078L9.229 8.51172H9.82666Z" fill="white"/>
</svg>
