<svg width="16" height="16" viewBox="0 0 16 16" fill="none" xmlns="http://www.w3.org/2000/svg">
<path d="M13.6133 8.24667C14.1933 8.48 14.5533 9.16668 14.42 9.77334L14.1467 11.0133C13.6733 13.1467 12 14.6667 9.58666 14.6667H6.41332C3.99999 14.6667 2.32666 13.1467 1.85332 11.0133L1.57999 9.77334C1.44666 9.16668 1.80665 8.48 2.38665 8.24667L3.33333 7.86667L7.00667 6.39334C7.64667 6.14001 8.35332 6.14001 8.99332 6.39334L12.6667 7.86667L13.6133 8.24667Z" stroke="#00748C" stroke-linecap="round" stroke-linejoin="round"/>
<path d="M8 14.6667V6.66666" stroke="#00748C" stroke-linecap="round" stroke-linejoin="round"/>
<path d="M12.6667 5.33334V7.86667L8.99337 6.39334C8.35337 6.14001 7.64671 6.14001 7.00671 6.39334L3.33337 7.86667V5.33334C3.33337 4.23334 4.23337 3.33334 5.33337 3.33334H10.6667C11.7667 3.33334 12.6667 4.23334 12.6667 5.33334Z" stroke="#00748C" stroke-linecap="round" stroke-linejoin="round"/>
<path d="M9.66671 3.33334H6.33337V2.00001C6.33337 1.63334 6.63337 1.33334 7.00004 1.33334H9.00004C9.36671 1.33334 9.66671 1.63334 9.66671 2.00001V3.33334Z" stroke="#00748C" stroke-linecap="round" stroke-linejoin="round"/>
</svg>
