<svg width="16" height="16" viewBox="0 0 16 16" fill="none" xmlns="http://www.w3.org/2000/svg">
<path d="M14.6667 11.3333V9.33332M14.6667 9.33332H1.33337M14.6667 9.33332H8.00004V5.99999H12.6667C13.1971 5.99999 13.7058 6.2107 14.0809 6.58578C14.456 6.96085 14.6667 7.46956 14.6667 7.99999V9.33332ZM1.33337 5.33332V11.3333M3.33337 5.99999C3.33337 6.35361 3.47385 6.69275 3.7239 6.9428C3.97395 7.19285 4.31309 7.33332 4.66671 7.33332C5.02033 7.33332 5.35947 7.19285 5.60952 6.9428C5.85956 6.69275 6.00004 6.35361 6.00004 5.99999C6.00004 5.64637 5.85956 5.30723 5.60952 5.05718C5.35947 4.80713 5.02033 4.66666 4.66671 4.66666C4.31309 4.66666 3.97395 4.80713 3.7239 5.05718C3.47385 5.30723 3.33337 5.64637 3.33337 5.99999Z" stroke="#00748C" stroke-width="1.2" stroke-linecap="round" stroke-linejoin="round"/>
</svg>
